<svg width="14" height="16" viewBox="0 0 14 16" fill="none" xmlns="http://www.w3.org/2000/svg">
<g clip-path="url(#clip0_80_2066)">
<path d="M5.38462 1.14286C5.08734 1.14286 4.83353 1.25446 4.6232 1.47768C4.41286 1.70089 4.30769 1.97024 4.30769 2.28571V10.2857L3.03726 8.48214C2.80729 8.16072 2.50721 8 2.13702 8C1.84535 8 1.59575 8.1131 1.38822 8.33929C1.18069 8.56548 1.07692 8.83333 1.07692 9.14286C1.07692 9.39881 1.14984 9.62798 1.29567 9.83036L4.52644 14.4018C4.73958 14.7054 5.02564 14.8571 5.38462 14.8571H11.4255C11.5489 14.8571 11.6597 14.817 11.7578 14.7366C11.856 14.6563 11.9191 14.5536 11.9471 14.4286L12.7212 11.1429C12.8558 10.5714 12.9231 9.99405 12.9231 9.41072V7.47321C12.9231 7.22917 12.8446 7.01786 12.6875 6.83929C12.5304 6.66071 12.3397 6.57143 12.1154 6.57143C11.891 6.57143 11.7003 6.65476 11.5433 6.82143C11.3862 6.9881 11.3077 7.19048 11.3077 7.42857H11.0385V6.88393C11.0385 6.59821 10.9487 6.35566 10.7692 6.15625C10.5897 5.95685 10.3654 5.85714 10.0962 5.85714C9.83814 5.85714 9.61659 5.95536 9.43149 6.15179C9.2464 6.34821 9.15385 6.58333 9.15385 6.85714V7.42857H8.88462V6.625C8.88462 6.29762 8.78085 6.01637 8.57332 5.78125C8.36579 5.54613 8.11058 5.42857 7.80769 5.42857C7.51042 5.42857 7.25661 5.54018 7.04627 5.76339C6.83594 5.98661 6.73077 6.25595 6.73077 6.57143V7.42857H6.46154V2.33929C6.46154 2.0119 6.35777 1.73065 6.15024 1.49554C5.94271 1.26042 5.6875 1.14286 5.38462 1.14286ZM5.38462 0C5.98478 0 6.49379 0.230655 6.91166 0.691964C7.32953 1.15327 7.53846 1.70238 7.53846 2.33929V4.30357C7.66186 4.29167 7.7516 4.28571 7.80769 4.28571C8.36298 4.28571 8.84816 4.49107 9.26322 4.90179C9.52684 4.77679 9.80449 4.71429 10.0962 4.71429C10.73 4.71429 11.246 4.97321 11.6442 5.49107C11.7957 5.44941 11.9527 5.42857 12.1154 5.42857C12.6426 5.42857 13.0885 5.62946 13.4531 6.03125C13.8177 6.43304 14 6.91369 14 7.47321V9.41072C14 10.1012 13.9215 10.7708 13.7644 11.4196L12.9904 14.7054C12.9006 15.0863 12.7099 15.3973 12.4183 15.6384C12.1266 15.8795 11.7957 16 11.4255 16H5.38462C5.04808 16 4.72696 15.9182 4.42127 15.7545C4.11559 15.5908 3.86178 15.369 3.65986 15.0893L0.429087 10.5179C0.143029 10.1131 0 9.65476 0 9.14286C0 8.51786 0.208934 7.98066 0.626803 7.53125C1.04467 7.08185 1.54808 6.85714 2.13702 6.85714C2.53526 6.85714 2.89984 6.96131 3.23077 7.16964V2.28571C3.23077 1.65476 3.44111 1.11607 3.86178 0.669643C4.28245 0.223214 4.79006 0 5.38462 0ZM6.46154 12.5714V9.14286H6.19231V12.5714H6.46154ZM8.61539 12.5714V9.14286H8.34615V12.5714H8.61539ZM10.7692 12.5714V9.14286H10.5V12.5714H10.7692Z" fill="#1C1C1C"/>
</g>
<defs>
<clipPath id="clip0_80_2066">
<rect width="14" height="16" fill="white"/>
</clipPath>
</defs>
</svg>
