<svg width="24" height="24" viewBox="0 0 24 24" fill="none" xmlns="http://www.w3.org/2000/svg">
<path d="M18.25 8.75H5.75L6.578 17.44C6.62525 17.9351 6.85529 18.3949 7.22324 18.7295C7.59118 19.0642 8.07062 19.2498 8.568 19.25H15.431C15.9285 19.25 16.4082 19.0646 16.7764 18.7299C17.1445 18.3952 17.3747 17.9353 17.422 17.44L18.25 8.75Z" stroke="#575B5C" stroke-width="1.5" stroke-linecap="round" stroke-linejoin="round"/>
<path d="M19.25 5.75C19.25 5.48478 19.1446 5.23043 18.9571 5.04289C18.7696 4.85536 18.5152 4.75 18.25 4.75H5.75C5.48478 4.75 5.23043 4.85536 5.04289 5.04289C4.85536 5.23043 4.75 5.48478 4.75 5.75V7.75C4.75 8.01522 4.85536 8.26957 5.04289 8.45711C5.23043 8.64464 5.48478 8.75 5.75 8.75H18.25C18.5152 8.75 18.7696 8.64464 18.9571 8.45711C19.1446 8.26957 19.25 8.01522 19.25 7.75V5.75Z" stroke="#575B5C" stroke-width="1.5" stroke-linecap="round" stroke-linejoin="round"/>
<path d="M9.75 13.25H14.25" stroke="#575B5C" stroke-width="1.5" stroke-linecap="round" stroke-linejoin="round"/>
</svg>
