<svg width="28" height="30" viewBox="0 0 28 30" fill="none" xmlns="http://www.w3.org/2000/svg">
<g id="gis:hex-map" clip-path="url(#clip0_377_2007)">
<path id="Vector" d="M0.7 3.75C0.514348 3.75 0.336301 3.82902 0.205025 3.96967C0.0737498 4.11032 0 4.30109 0 4.5L0 25.5C0 25.6989 0.0737498 25.8897 0.205025 26.0303C0.336301 26.171 0.514348 26.25 0.7 26.25H27.3C27.4857 26.25 27.6637 26.171 27.795 26.0303C27.9263 25.8897 28 25.6989 28 25.5V4.5C28 4.30109 27.9263 4.11032 27.795 3.96967C27.6637 3.82902 27.4857 3.75 27.3 3.75H0.7ZM2.03504 5.25H5.85704L7.76776 8.796L5.85704 12.3429H2.03504L1.4 11.1645V6.4284L2.03504 5.25ZM7.1498 5.25H14.147L12.56 8.196H8.73796L7.1498 5.25ZM15.4406 5.25H19.2626L21.1733 8.796L19.2626 12.3429H15.4406L13.5296 8.796L15.4406 5.25ZM20.5554 5.25H26.6V7.0188L25.9655 8.196H22.1435L20.5554 5.25ZM8.73796 9.396H12.5594L13.5156 11.169L14.471 12.9429L12.56 16.4889H8.73796L6.82668 12.9429L8.73796 9.396ZM22.1435 9.396H25.965L26.6 10.5744V15.3114L25.9655 16.4889H22.1435L20.2322 12.9429L21.1882 11.169L22.1435 9.396ZM2.03504 13.5429H5.85704L6.8124 15.3159L7.76776 17.0889L6.8124 18.8619L5.85704 20.6349H2.03504L1.4 19.4565V14.721L2.03504 13.5429ZM15.4406 13.5429H19.2626L20.218 15.3159L21.1733 17.0889L20.218 18.8619L19.2626 20.6349H15.4406L14.485 18.8619L13.5296 17.0889L14.485 15.3159L15.4406 13.5429ZM8.73796 17.6889H12.5594L13.235 18.9423L14.4704 21.2349L12.577 24.75H8.72088L6.82668 21.2349L7.78204 19.4619L8.73796 17.6889ZM22.1435 17.6889H25.965L26.6 18.867V23.604L25.9826 24.75H22.1264L21.5054 23.5968L20.2328 21.2349L22.1435 17.6889ZM2.03504 21.8349H5.85704L7.42784 24.75H1.4V23.013L2.03504 21.8349ZM15.4406 21.8349H19.2626L20.218 23.6085L20.8326 24.75H13.8698L15.4406 21.8349Z" fill="#344054"/>
</g>
<defs>
<clipPath id="clip0_377_2007">
<rect width="28" height="30" fill="white"/>
</clipPath>
</defs>
</svg>
