<svg width="28" height="28" viewBox="0 0 28 28" fill="none" xmlns="http://www.w3.org/2000/svg">
<g id="mingcute:road-line" clip-path="url(#clip0_377_1991)">
<g id="Group">
<path id="Vector" d="M9.6168 3.53502C9.91693 3.61022 10.1749 3.80156 10.334 4.06695C10.493 4.33235 10.5401 4.65005 10.465 4.95019L5.7983 23.6169C5.76331 23.7677 5.69863 23.9102 5.60803 24.0358C5.51742 24.1614 5.40271 24.2677 5.27058 24.3486C5.13845 24.4294 4.99155 24.4831 4.83844 24.5066C4.68534 24.53 4.52909 24.5227 4.37883 24.4852C4.22856 24.4476 4.08728 24.3805 3.96322 24.2877C3.83916 24.195 3.73482 24.0785 3.65627 23.945C3.57772 23.8115 3.52654 23.6637 3.50571 23.5102C3.48489 23.3567 3.49483 23.2006 3.53497 23.051L8.20163 4.38436C8.23874 4.23564 8.30479 4.09569 8.396 3.97251C8.48721 3.84933 8.60181 3.74533 8.73323 3.66646C8.86465 3.58758 9.01033 3.53538 9.16194 3.51283C9.31354 3.49027 9.46811 3.49782 9.6168 3.53502ZM19.7983 4.38319L24.465 23.0499C24.5051 23.1995 24.515 23.3556 24.4942 23.509C24.4734 23.6625 24.4222 23.8103 24.3437 23.9438C24.2651 24.0773 24.1608 24.1938 24.0367 24.2866C23.9127 24.3793 23.7714 24.4464 23.6211 24.484C23.4708 24.5216 23.3146 24.5288 23.1615 24.5054C23.0084 24.4819 22.8615 24.4282 22.7294 24.3474C22.5972 24.2666 22.4825 24.1602 22.3919 24.0346C22.3013 23.909 22.2366 23.7666 22.2016 23.6157L17.535 4.94902C17.4948 4.79942 17.4849 4.64333 17.5057 4.48984C17.5265 4.33636 17.5777 4.18855 17.6563 4.05506C17.7348 3.92156 17.8392 3.80504 17.9632 3.7123C18.0873 3.61955 18.2286 3.55244 18.3788 3.51488C18.5291 3.47731 18.6853 3.47004 18.8384 3.49349C18.9915 3.51695 19.1384 3.57065 19.2706 3.65148C19.4027 3.73231 19.5174 3.83864 19.608 3.96426C19.6986 4.08989 19.7633 4.2323 19.7983 4.38319ZM14 19.8334C14.2857 19.8334 14.5615 19.9383 14.7751 20.1282C14.9886 20.3181 15.125 20.5797 15.1585 20.8635L15.1666 21V23.3334C15.1663 23.6307 15.0524 23.9167 14.8483 24.133C14.6442 24.3492 14.3652 24.4793 14.0683 24.4967C13.7715 24.5142 13.4792 24.4176 13.2512 24.2267C13.0231 24.0359 12.8766 23.7651 12.8415 23.4699L12.8333 23.3334V21C12.8333 20.6906 12.9562 20.3939 13.175 20.1751C13.3938 19.9563 13.6905 19.8334 14 19.8334ZM14 11.6667C14.3094 11.6667 14.6061 11.7896 14.8249 12.0084C15.0437 12.2272 15.1666 12.5239 15.1666 12.8334V15.1667C15.1666 15.4761 15.0437 15.7729 14.8249 15.9916C14.6061 16.2104 14.3094 16.3334 14 16.3334C13.6905 16.3334 13.3938 16.2104 13.175 15.9916C12.9562 15.7729 12.8333 15.4761 12.8333 15.1667V12.8334C12.8333 12.5239 12.9562 12.2272 13.175 12.0084C13.3938 11.7896 13.6905 11.6667 14 11.6667ZM14 3.50002C14.2857 3.50006 14.5615 3.60497 14.7751 3.79486C14.9886 3.98474 15.125 4.2464 15.1585 4.53019L15.1666 4.66669V7.00002C15.1663 7.29738 15.0524 7.58339 14.8483 7.79962C14.6442 8.01585 14.3652 8.14596 14.0683 8.16339C13.7715 8.18082 13.4792 8.08424 13.2512 7.89338C13.0231 7.70253 12.8766 7.4318 12.8415 7.13652L12.8333 7.00002V4.66669C12.8333 4.35727 12.9562 4.06052 13.175 3.84173C13.3938 3.62294 13.6905 3.50002 14 3.50002Z" fill="#344054"/>
</g>
</g>
<defs>
<clipPath id="clip0_377_1991">
<rect width="28" height="28" fill="white"/>
</clipPath>
</defs>
</svg>
