<svg width="28" height="28" viewBox="0 0 28 28" fill="none" xmlns="http://www.w3.org/2000/svg">
<g id="fi-rs-document" clip-path="url(#clip0_366_9878)">
<path id="Vector" d="M8.16683 14H19.8335V16.3333H8.16683V14ZM8.16683 21H16.3335V18.6667H8.16683V21ZM25.6668 8.85033V28H2.3335V3.5C2.3335 2.57174 2.70225 1.6815 3.35862 1.02513C4.015 0.368749 4.90524 0 5.8335 0L16.8165 0L25.6668 8.85033ZM17.5002 8.16667H21.6838L17.5002 3.983V8.16667ZM23.3335 25.6667V10.5H15.1668V2.33333H5.8335C5.52408 2.33333 5.22733 2.45625 5.00854 2.67504C4.78975 2.89383 4.66683 3.19058 4.66683 3.5V25.6667H23.3335Z" fill="#525252"/>
</g>
<defs>
<clipPath id="clip0_366_9878">
<rect width="28" height="28" fill="white"/>
</clipPath>
</defs>
</svg>
