<svg width="30" height="30" viewBox="0 0 30 30" fill="none" xmlns="http://www.w3.org/2000/svg">
<path id="Vector" fill-rule="evenodd" clip-rule="evenodd" d="M24.9351 0C22.8711 0 21.1257 1.42051 20.6214 3.32762L20.0661 3.06962C19.9671 3.02357 19.8591 2.9997 19.7499 2.9997C19.6407 2.9997 19.5328 3.02357 19.4337 3.06962L10.2498 7.33594L1.0659 3.06992C0.951624 3.01685 0.82582 2.99342 0.700101 3.00181C0.574382 3.01019 0.452802 3.05011 0.346584 3.11788C0.240366 3.18566 0.152933 3.2791 0.0923593 3.38958C0.0317851 3.50006 2.11597e-05 3.62402 2.02276e-08 3.75002V24.8363C-3.31839e-05 24.9792 0.0408133 25.1193 0.117725 25.2398C0.194637 25.3604 0.304408 25.4564 0.4341 25.5167L9.9339 29.9294C10.033 29.9754 10.1409 29.9993 10.2501 29.9993C10.3593 29.9993 10.4672 29.9754 10.5663 29.9294L19.7502 25.6634L28.9341 29.9294C29.4312 30.1601 30 29.7974 30 29.2496V8.16335C30 8.02035 29.9592 7.88033 29.8823 7.75978C29.8054 7.63923 29.6956 7.54318 29.5659 7.48295L28.5969 7.03234L28.9002 6.51574C28.9692 6.39064 29.0241 6.25744 29.0712 6.12124C29.2884 5.59176 29.4001 5.02494 29.4 4.45263C29.4 2.00551 27.3894 0 24.9351 0ZM24.9351 2.08591C26.2566 2.08591 27.3075 3.13472 27.3075 4.45263C27.3075 5.77024 26.2566 6.81814 24.9351 6.81814C23.6136 6.81814 22.5627 5.77024 22.5627 4.45263C22.5627 3.13472 23.6136 2.08591 24.9351 2.08591ZM20.0853 4.73253L20.4984 4.92483C20.579 5.67447 20.8501 6.391 21.2859 7.00624L24.3903 12.3733C24.8253 12.9415 25.1145 12.8335 25.476 12.3433L27.8331 8.33135L28.5 8.64155V28.0742L20.1966 24.217L20.1288 12.3142C20.2512 12.3406 20.3733 12.3661 20.496 12.3952L20.772 11.2279C20.556 11.1768 20.3392 11.1295 20.1216 11.086L20.0856 4.73253H20.0853ZM19.1859 4.83873L19.2204 10.9396C18.9106 10.897 18.5989 10.8689 18.2865 10.8553L18.2421 12.0541C18.5685 12.0661 18.8976 12.1015 19.2276 12.1495L19.2966 24.2197L10.6938 28.2167L10.5831 8.83535L19.1859 4.83873ZM1.5 4.92543L9.6825 8.72645L9.7938 28.2107L1.5 24.3574V4.92543ZM16.9629 10.9372C16.5498 11.0113 16.1271 11.1436 15.7335 11.3725C15.2627 11.6451 14.8755 12.0414 14.6139 12.5185L15.6645 13.0981C15.821 12.8131 16.0518 12.5758 16.3323 12.4114L16.3341 12.4102L16.3359 12.409C16.578 12.268 16.8663 12.1732 17.175 12.118L16.9629 10.9372ZM21.9627 11.5465L21.6228 12.6967C22.3737 12.9187 23.1174 13.1737 23.8569 13.4497L24.2766 12.3253C23.517 12.0421 22.7466 11.7781 21.9627 11.5465ZM14.1621 13.8253L14.1531 13.8727L14.1522 13.8769C14.0025 14.7262 14.0184 15.562 14.052 16.3564L15.2508 16.3054C15.2181 15.5347 15.2112 14.7889 15.3339 14.089L15.3411 14.0515L14.1621 13.8253ZM15.3222 17.4883L14.1252 17.5693C14.1792 18.37 14.2368 19.1548 14.2347 19.9243L15.4347 19.9273C15.4371 19.0963 15.3762 18.2839 15.3222 17.4883ZM14.175 21.0553C14.142 21.3412 14.0928 21.6193 14.0208 21.8863L14.0202 21.8878L14.0196 21.8902C13.9146 22.2907 13.7379 22.6615 13.4913 22.9519L14.4054 23.7289C14.7918 23.2744 15.0369 22.7395 15.1794 22.1983L15.18 22.1965C15.27 21.8617 15.3285 21.5245 15.3669 21.1915L14.175 21.0553ZM4.0446 22.2247L3.5058 23.2969C4.2498 23.671 5.0193 23.9803 5.7942 24.2479L6.1857 23.1136C5.4492 22.8595 4.7301 22.5691 4.0446 22.2247ZM7.2954 23.4586L6.9762 24.6155C7.77 24.8348 8.586 25.0091 9.42 25.103L9.5538 23.9104C8.7975 23.8255 8.0433 23.6653 7.2954 23.4586ZM12.7377 23.5432C12.1401 23.8492 11.4186 23.9623 10.6767 23.9713L10.6917 25.1714C11.5419 25.1612 12.4509 25.0382 13.2843 24.6113L12.7377 23.5432Z" fill="#344054"/>
</svg>
