<svg width="30" height="30" viewBox="0 0 30 30" fill="none" xmlns="http://www.w3.org/2000/svg">
<g id="gis:road-map">
<path id="Vector" d="M0.5895 3.75C0.264 3.75 0 4.0329 0 4.3815V25.6185C0 25.9671 0.264 26.2497 0.5895 26.25H29.4105C29.736 26.25 30 25.9671 30 25.6185V4.3815C30 4.0329 29.736 3.7503 29.4105 3.75H0.5895ZM7.3119 5.0139H11.0274C11.9844 5.349 12.9714 5.6649 13.9593 5.9544C16.1373 6.5922 18.2883 7.1112 19.9605 7.4712C20.4927 7.5858 20.9526 7.6773 21.3738 7.7583C21.0855 8.0685 20.8026 8.3778 20.5137 8.6865L20.1966 9.0252C18.2487 8.4153 16.0203 7.8084 13.1544 7.2075C11.1324 6.7839 9.1833 6.0183 7.3119 5.0139ZM12.4359 5.0139H16.7718C17.9444 5.31943 19.1232 5.60089 20.3073 5.8581C21.1263 6.0345 21.8253 6.171 22.3425 6.2619C22.551 6.29923 22.7601 6.33283 22.9698 6.3627C23.1258 6.384 23.2551 6.3882 23.2083 6.3897L23.2101 6.4371C23.6397 5.96595 24.0657 5.49153 24.4881 5.0139H26.0877C24.747 6.5619 23.2338 8.1951 21.7185 9.8145C18.7791 12.9552 15.8967 16.02 14.691 17.8776C15.0414 18.3942 15.2284 19.0042 15.228 19.6284C15.228 20.1663 15.0909 20.6736 14.8497 21.1173C16.0788 22.0782 16.9968 23.4741 17.8281 24.9861H16.4376C15.7224 23.7711 14.9649 22.7232 14.088 22.0437C13.6885 22.3765 13.2122 22.6043 12.7024 22.7064C12.1925 22.8085 11.6653 22.7817 11.1684 22.6284C10.883 23.4294 10.5595 24.2163 10.1991 24.9864H8.8701C9.3282 24.0435 9.7461 23.0757 10.0989 22.0518C9.3981 21.4749 8.9499 20.6016 8.9499 19.6284C8.9499 18.8028 9.2748 18.051 9.8007 17.4891C8.0277 13.5261 4.8252 11.4891 1.1793 9.3246V7.9224C5.0469 10.2039 8.7378 12.3741 10.7949 16.773C11.2781 16.5507 11.8103 16.4563 12.3404 16.4988C12.8706 16.5413 13.3809 16.7193 13.8225 17.0157C15.2235 14.9415 18.003 12.027 20.8416 8.994C21.318 8.4849 21.7881 7.9746 22.2606 7.464C22.2132 7.4562 22.1847 7.4526 22.134 7.4436C21.4384 7.31887 20.7452 7.18135 20.0547 7.0311C18.3918 6.6732 16.2498 6.1563 14.0856 5.5224C13.5333 5.36036 12.9836 5.19085 12.4359 5.0139ZM18.6309 5.0139H23.88C23.6115 5.3151 23.349 5.613 23.0694 5.9202C23.0544 5.9187 23.0463 5.919 23.031 5.9169C22.8268 5.88768 22.6232 5.85488 22.4202 5.8185C21.9111 5.7288 21.2163 5.5935 20.4024 5.4183C19.8106 5.28965 19.2199 5.15484 18.6309 5.0139ZM26.6847 5.0139H28.8207V6.3294C28.8081 6.3285 28.7961 6.3258 28.7835 6.3258H28.7796C28.6404 6.32632 28.507 6.38213 28.4089 6.48095C28.3109 6.57977 28.256 6.71351 28.2566 6.85275C28.2571 6.99199 28.3129 7.12532 28.4117 7.22341C28.5105 7.3215 28.6443 7.37632 28.7835 7.3758C28.7961 7.3758 28.8081 7.3731 28.8204 7.3722V8.4294C28.8084 8.4285 28.7964 8.4258 28.7835 8.4258H28.7796C28.6404 8.42632 28.507 8.48213 28.4089 8.58095C28.3109 8.67977 28.256 8.81351 28.2566 8.95275C28.2571 9.09199 28.3129 9.22532 28.4117 9.32341C28.5105 9.4215 28.6443 9.47632 28.7835 9.4758C28.7961 9.4758 28.8081 9.4731 28.8204 9.4722V10.5294C28.8084 10.5285 28.7964 10.5258 28.7835 10.5258C28.6443 10.5258 28.5107 10.5811 28.4123 10.6796C28.3138 10.778 28.2585 10.9116 28.2585 11.0508C28.2585 11.19 28.3138 11.3236 28.4123 11.422C28.5107 11.5205 28.6443 11.5758 28.7835 11.5758C28.7961 11.5758 28.8081 11.5731 28.8204 11.5722V11.9607C28.5831 11.8854 28.341 11.8101 28.1097 11.7345C28.0506 11.6739 27.9777 11.6285 27.8973 11.6022C27.8168 11.5759 27.7312 11.5694 27.6477 11.5833C27.4554 11.5194 27.2706 11.4558 27.0825 11.3919C27.1382 11.3268 27.1771 11.2491 27.1958 11.1655C27.2145 11.0819 27.2125 10.995 27.19 10.9124C27.1674 10.8298 27.125 10.7539 27.0664 10.6914C27.0078 10.629 26.9348 10.5818 26.8537 10.554C26.7727 10.5263 26.6861 10.5187 26.6015 10.5321C26.5169 10.5455 26.4369 10.5794 26.3684 10.6308C26.2999 10.6822 26.245 10.7496 26.2085 10.8271C26.172 10.9046 26.1551 10.9898 26.1591 11.0754C25.7313 10.9257 25.3125 10.776 24.8925 10.6266C24.81 10.5664 24.7118 10.5316 24.6099 10.5264C24.3969 10.4505 24.18 10.3743 23.9661 10.2984C24.0445 10.1847 24.0749 10.0446 24.0508 9.90861C24.0267 9.7726 23.9499 9.65158 23.8371 9.5718L23.3583 10.0848C23.0442 9.9738 22.7106 9.8634 22.3893 9.753C23.8893 8.1492 25.3752 6.5412 26.6847 5.0139ZM28.2027 5.5659C27.8559 5.6517 27.5616 5.8023 27.2613 6.0294C27.2905 6.09322 27.3322 6.15053 27.384 6.19794C27.4357 6.24536 27.4964 6.28192 27.5626 6.30546C27.6287 6.329 27.6989 6.33905 27.7689 6.335C27.839 6.33096 27.9075 6.3129 27.9705 6.28191C28.0335 6.25092 28.0896 6.20761 28.1355 6.15455C28.1815 6.1015 28.2163 6.03977 28.238 5.97302C28.2597 5.90626 28.2677 5.83584 28.2617 5.76591C28.2557 5.69599 28.2355 5.62798 28.2027 5.5659ZM26.8764 6.3627C26.6417 6.5824 26.4148 6.81024 26.196 7.0458C26.2283 7.12657 26.2801 7.19806 26.3469 7.25383C26.4136 7.30961 26.4932 7.34793 26.5784 7.36535C26.6636 7.38277 26.7518 7.37874 26.8351 7.35363C26.9184 7.32852 26.9941 7.28311 27.0555 7.22148C27.1169 7.15985 27.162 7.08394 27.1868 7.00056C27.2115 6.91719 27.2152 6.82896 27.1975 6.74381C27.1797 6.65866 27.1411 6.57926 27.085 6.51273C27.029 6.44621 26.9573 6.39466 26.8764 6.3627ZM1.1796 6.9597C6.6141 10.5702 11.1498 12.0597 16.5579 12.9492C15.4164 14.2182 14.4162 15.3972 13.6863 16.4226C13.1914 16.1712 12.6442 16.0396 12.0891 16.0386C11.7168 16.0386 11.3568 16.0968 11.0181 16.2042C8.8239 11.838 5.0289 9.6672 1.1796 7.3974V6.9597ZM27.7296 7.3758C27.6607 7.37633 27.5925 7.39044 27.529 7.41731C27.4655 7.44419 27.4079 7.48331 27.3596 7.53243C27.2619 7.63165 27.2076 7.76561 27.2087 7.90485C27.2097 8.04409 27.2661 8.1772 27.3653 8.2749C27.4645 8.37259 27.5985 8.42687 27.7377 8.4258C27.8769 8.42473 28.01 8.36838 28.1077 8.26917C28.2054 8.16995 28.2597 8.03599 28.2587 7.89675C28.2576 7.75751 28.2012 7.6244 28.102 7.52671C28.0028 7.42901 27.8688 7.37473 27.7296 7.3758ZM25.8456 7.4202L25.1688 8.145C25.2078 8.21912 25.264 8.28283 25.3327 8.33079C25.4014 8.37876 25.4806 8.40959 25.5636 8.42072C25.6466 8.43185 25.7311 8.42294 25.81 8.39475C25.8889 8.36656 25.9599 8.31991 26.017 8.25868C26.0742 8.19745 26.1159 8.12343 26.1386 8.0428C26.1614 7.96217 26.1645 7.87727 26.1477 7.7952C26.1309 7.71313 26.0947 7.63626 26.0422 7.57102C25.9896 7.50579 25.9222 7.45407 25.8456 7.4202ZM26.6796 8.4258C26.6107 8.42633 26.5425 8.44044 26.479 8.46731C26.4155 8.49419 26.3579 8.53331 26.3096 8.58243C26.2612 8.63156 26.223 8.68973 26.1971 8.75363C26.1712 8.81753 26.1581 8.88591 26.1587 8.95485C26.1592 9.02379 26.1733 9.09196 26.2002 9.15545C26.227 9.21894 26.2662 9.27652 26.3153 9.32489C26.3644 9.37327 26.4226 9.41149 26.4865 9.43739C26.5504 9.46328 26.6188 9.47633 26.6877 9.4758C26.8269 9.47473 26.96 9.41838 27.0577 9.31917C27.1554 9.21995 27.2097 9.08599 27.2087 8.94675C27.2076 8.80751 27.1512 8.6744 27.052 8.57671C26.9528 8.47901 26.8188 8.42473 26.6796 8.4258ZM24.8433 8.4942L24.1464 9.2409C24.1902 9.30697 24.2485 9.36225 24.3168 9.40259C24.385 9.44293 24.4615 9.46728 24.5406 9.47382C24.6196 9.48035 24.6991 9.4689 24.773 9.44033C24.847 9.41175 24.9135 9.36679 24.9676 9.30882C25.0218 9.25085 25.062 9.18137 25.0854 9.10561C25.1088 9.02985 25.1148 8.94977 25.1028 8.87138C25.0909 8.79299 25.0613 8.71834 25.0163 8.65301C24.9714 8.58768 24.9122 8.53339 24.8433 8.4942ZM25.6293 9.4758C25.4901 9.47691 25.357 9.5333 25.2593 9.63254C25.1616 9.73178 25.1074 9.86576 25.1085 10.005C25.1096 10.1442 25.166 10.2773 25.2652 10.375C25.3645 10.4727 25.4985 10.5269 25.6377 10.5258C25.7769 10.5247 25.91 10.4684 26.0077 10.3692C26.1054 10.27 26.1597 10.136 26.1587 9.99675C26.1576 9.85751 26.1012 9.7244 26.002 9.62671C25.9028 9.52901 25.7685 9.47473 25.6293 9.4758ZM27.7293 9.4758C27.5901 9.47691 27.457 9.5333 27.3593 9.63254C27.2616 9.73178 27.2074 9.86576 27.2085 10.005C27.2096 10.1442 27.266 10.2773 27.3652 10.375C27.4645 10.4727 27.5985 10.5269 27.7377 10.5258C27.8769 10.5247 28.01 10.4684 28.1077 10.3692C28.2054 10.27 28.2597 10.136 28.2587 9.99675C28.2576 9.85751 28.2012 9.7244 28.102 9.62671C28.0028 9.52901 27.8685 9.47473 27.7293 9.4758ZM1.1793 9.8502C4.6227 11.9022 7.5756 13.8321 9.2736 17.4171C8.7915 18.0285 8.5002 18.7962 8.5002 19.6281C8.5002 20.6235 8.9148 21.528 9.5778 22.1808C9.2286 23.154 8.8188 24.0798 8.3706 24.9861H7.0722L7.8972 23.5575L7.0206 23.0514L7.3329 22.5099L6.1188 21.8091L4.2843 24.9861H1.1793V14.496L3.4845 15.8706L4.9179 13.467L1.1796 11.2374L1.1793 9.8502ZM19.0728 13.3311C19.7688 13.4466 20.4438 13.6077 21.0918 13.8021C21.0209 13.8627 20.9675 13.9411 20.9369 14.0292C20.9064 14.1172 20.8998 14.2119 20.918 14.3034C20.9361 14.3948 20.9783 14.4798 21.0402 14.5495C21.102 14.6193 21.1814 14.6713 21.27 14.7003C21.3587 14.7292 21.4534 14.734 21.5445 14.7142C21.6356 14.6944 21.7198 14.6506 21.7884 14.5875C21.8571 14.5243 21.9076 14.4441 21.9349 14.3549C21.9622 14.2658 21.9653 14.1709 21.9438 14.0802C22.3545 14.2251 22.7508 14.3802 23.1348 14.5422C23.1869 14.6031 23.2522 14.6512 23.3258 14.6829C23.3994 14.7147 23.4793 14.7291 23.5593 14.7252C23.754 14.8122 23.9421 14.9004 24.1284 14.9892C24.093 15.0512 24.0706 15.1198 24.0626 15.1908C24.0547 15.2618 24.0612 15.3336 24.082 15.4019C24.1027 15.4703 24.1372 15.5337 24.1833 15.5882C24.2294 15.6428 24.2861 15.6874 24.35 15.7192C24.4139 15.7511 24.4836 15.7696 24.5549 15.7736C24.6262 15.7776 24.6976 15.767 24.7647 15.7425C24.8317 15.718 24.8931 15.68 24.945 15.631C24.9969 15.5819 25.0382 15.5228 25.0665 15.4572C25.2744 15.5661 25.4535 15.6696 25.647 15.7764C25.6412 15.7761 25.6354 15.7759 25.6296 15.7758C25.5126 15.7766 25.3993 15.8164 25.3076 15.889C25.2158 15.9615 25.1509 16.0627 25.1232 16.1763C25.0955 16.2899 25.1065 16.4095 25.1545 16.5162C25.2024 16.6229 25.2847 16.7104 25.3881 16.765C25.4915 16.8197 25.6102 16.8382 25.7254 16.8176C25.8405 16.7971 25.9455 16.7387 26.0237 16.6517C26.1019 16.5647 26.1488 16.4541 26.1569 16.3375C26.1651 16.2208 26.1341 16.1047 26.0688 16.0077C27.0279 16.5507 27.7839 17.0217 28.2669 17.2593C28.2535 17.3348 28.2569 17.4123 28.2767 17.4864C28.2965 17.5605 28.3323 17.6293 28.3816 17.6881C28.4308 17.7469 28.4924 17.7941 28.5619 17.8266C28.6314 17.859 28.7071 17.8758 28.7838 17.8758C28.7964 17.8758 28.8078 17.8713 28.8204 17.8704V18.9294C28.8084 18.9285 28.7964 18.9258 28.7835 18.9258H28.7796C28.6404 18.9263 28.507 18.9821 28.4089 19.0809C28.3109 19.1798 28.256 19.3135 28.2566 19.4528C28.2571 19.592 28.3129 19.7253 28.4117 19.8234C28.5105 19.9215 28.6443 19.9763 28.7835 19.9758C28.7961 19.9758 28.8081 19.9731 28.8204 19.9722V21.0294C28.8084 21.0285 28.7964 21.0258 28.7835 21.0258C28.6443 21.0258 28.5107 21.0811 28.4123 21.1796C28.3138 21.278 28.2585 21.4116 28.2585 21.5508C28.2585 21.69 28.3138 21.8236 28.4123 21.922C28.5107 22.0205 28.6443 22.0758 28.7835 22.0758C28.7961 22.0758 28.8081 22.0731 28.8204 22.0722V24.9861H18.345C17.535 23.4801 16.638 22.0467 15.4065 20.9889C15.6131 20.4924 15.704 19.9553 15.6721 19.4185C15.6402 18.8816 15.4865 18.3591 15.2226 17.8905C16.0095 16.7484 17.4366 15.1203 19.0728 13.3311ZM20.3838 14.7258C20.3184 14.7258 20.2536 14.7378 20.1927 14.7618C20.138 15.0809 20.1287 15.4061 20.1651 15.7278C20.2364 15.7606 20.3142 15.777 20.3927 15.7757C20.4712 15.7745 20.5484 15.7557 20.6186 15.7206C20.6889 15.6856 20.7504 15.6353 20.7986 15.5734C20.8469 15.5114 20.8806 15.4394 20.8973 15.3628C20.9141 15.2861 20.9134 15.2066 20.8954 15.1302C20.8773 15.0538 20.8424 14.9824 20.7931 14.9213C20.7438 14.8602 20.6815 14.8109 20.6107 14.7771C20.5398 14.7432 20.4623 14.7257 20.3838 14.7258ZM22.4838 14.7258C22.3446 14.7258 22.211 14.7811 22.1126 14.8796C22.0141 14.978 21.9588 15.1116 21.9588 15.2508C21.9588 15.39 22.0141 15.5236 22.1126 15.622C22.211 15.7205 22.3446 15.7758 22.4838 15.7758C22.623 15.7758 22.7566 15.7205 22.855 15.622C22.9535 15.5236 23.0088 15.39 23.0088 15.2508C23.0088 15.1116 22.9535 14.978 22.855 14.8796C22.7566 14.7811 22.623 14.7258 22.4838 14.7258ZM5.4591 15.7179L4.3722 17.6004L3.6429 18.8634L5.5254 19.9506L6.255 18.6873L7.0026 19.1193L8.0895 17.2365L7.3419 16.8045L5.4591 15.7179ZM21.4296 15.7758C21.3607 15.7763 21.2925 15.7904 21.229 15.8173C21.1655 15.8442 21.1079 15.8833 21.0596 15.9324C20.9619 16.0316 20.9076 16.1656 20.9087 16.3049C20.9097 16.4441 20.9661 16.5772 21.0653 16.6749C21.1645 16.7726 21.2985 16.8269 21.4377 16.8258C21.5769 16.8247 21.71 16.7684 21.8077 16.6692C21.9054 16.57 21.9597 16.436 21.9587 16.2968C21.9576 16.1575 21.9012 16.0244 21.802 15.9267C21.7028 15.829 21.5688 15.7747 21.4296 15.7758ZM23.5296 15.7758C23.4607 15.7763 23.3925 15.7904 23.329 15.8173C23.2655 15.8442 23.2079 15.8833 23.1596 15.9324C23.0619 16.0316 23.0076 16.1656 23.0087 16.3049C23.0097 16.4441 23.0661 16.5772 23.1653 16.6749C23.2645 16.7726 23.3985 16.8269 23.5377 16.8258C23.6769 16.8247 23.81 16.7684 23.9077 16.6692C24.0054 16.57 24.0597 16.436 24.0587 16.2968C24.0576 16.1575 24.0012 16.0244 23.902 15.9267C23.8028 15.829 23.6688 15.7747 23.5296 15.7758ZM22.4796 16.8258C22.4107 16.8263 22.3425 16.8404 22.279 16.8673C22.2155 16.8942 22.1579 16.9333 22.1096 16.9824C22.0612 17.0316 22.023 17.0897 21.9971 17.1536C21.9712 17.2175 21.9581 17.2859 21.9587 17.3548C21.9592 17.4238 21.9733 17.492 22.0002 17.5555C22.027 17.6189 22.0662 17.6765 22.1153 17.7249C22.1644 17.7733 22.2226 17.8115 22.2865 17.8374C22.3504 17.8633 22.4188 17.8763 22.4877 17.8758C22.6269 17.8747 22.76 17.8184 22.8577 17.7192C22.9554 17.62 23.0097 17.486 23.0087 17.3468C23.0076 17.2075 22.9512 17.0744 22.852 16.9767C22.7528 16.879 22.6188 16.8247 22.4796 16.8258ZM24.5796 16.8258C24.5107 16.8263 24.4425 16.8404 24.379 16.8673C24.3155 16.8942 24.2579 16.9333 24.2096 16.9824C24.1612 17.0316 24.123 17.0897 24.0971 17.1536C24.0712 17.2175 24.0581 17.2859 24.0587 17.3548C24.0592 17.4238 24.0733 17.492 24.1002 17.5555C24.127 17.6189 24.1662 17.6765 24.2153 17.7249C24.2644 17.7733 24.3226 17.8115 24.3865 17.8374C24.4504 17.8633 24.5188 17.8763 24.5877 17.8758C24.7269 17.8747 24.86 17.8184 24.9577 17.7192C25.0554 17.62 25.1097 17.486 25.1087 17.3468C25.1076 17.2075 25.0512 17.0744 24.952 16.9767C24.8528 16.879 24.7188 16.8247 24.5796 16.8258ZM26.6796 16.8258C26.6107 16.8263 26.5425 16.8404 26.479 16.8673C26.4155 16.8942 26.3579 16.9333 26.3096 16.9824C26.2612 17.0316 26.223 17.0897 26.1971 17.1536C26.1712 17.2175 26.1581 17.2859 26.1587 17.3548C26.1592 17.4238 26.1733 17.492 26.2002 17.5555C26.227 17.6189 26.2662 17.6765 26.3153 17.7249C26.3644 17.7733 26.4226 17.8115 26.4865 17.8374C26.5504 17.8633 26.6188 17.8763 26.6877 17.8758C26.8269 17.8747 26.96 17.8184 27.0577 17.7192C27.1554 17.62 27.2097 17.486 27.2087 17.3468C27.2076 17.2075 27.1512 17.0744 27.052 16.9767C26.9528 16.879 26.8188 16.8247 26.6796 16.8258ZM20.4657 16.8321C20.4696 16.8414 20.472 16.8504 20.4762 16.8597C20.4704 17.1977 20.4565 17.5355 20.4345 17.8728C20.5613 17.8601 20.6792 17.8017 20.7661 17.7085C20.8531 17.6152 20.9031 17.4936 20.9069 17.3661C20.9108 17.2387 20.8681 17.1143 20.7869 17.016C20.7057 16.9178 20.5915 16.8524 20.4657 16.8321ZM12.0891 17.6889C11.8341 17.6877 11.5814 17.7371 11.3456 17.8342C11.1098 17.9313 10.8956 18.0741 10.7153 18.2544C10.535 18.4348 10.3923 18.649 10.2953 18.8849C10.1983 19.1207 10.149 19.3734 10.1502 19.6284C10.149 19.8834 10.1983 20.136 10.2953 20.3718C10.3923 20.6076 10.5351 20.8219 10.7153 21.0022C10.8956 21.1824 11.1099 21.3252 11.3457 21.4222C11.5815 21.5192 11.8341 21.5685 12.0891 21.5673C12.3441 21.5685 12.5968 21.5192 12.8326 21.4222C13.0685 21.3252 13.2827 21.1825 13.4631 21.0022C13.6434 20.8219 13.7862 20.6077 13.8833 20.3719C13.9804 20.1361 14.0298 19.8834 14.0286 19.6284C14.0298 19.3734 13.9804 19.1206 13.8834 18.8848C13.7863 18.6489 13.6435 18.4346 13.4632 18.2543C13.2829 18.074 13.0686 17.9312 12.8327 17.8341C12.5969 17.7371 12.3441 17.6877 12.0891 17.6889ZM21.4296 17.8758C21.3607 17.8763 21.2925 17.8904 21.229 17.9173C21.1655 17.9442 21.1079 17.9833 21.0596 18.0324C21.0112 18.0816 20.973 18.1397 20.9471 18.2036C20.9212 18.2675 20.9081 18.3359 20.9087 18.4049C20.9092 18.4738 20.9233 18.542 20.9502 18.6055C20.977 18.6689 21.0162 18.7265 21.0653 18.7749C21.1144 18.8233 21.1726 18.8615 21.2365 18.8874C21.3004 18.9133 21.3688 18.9263 21.4377 18.9258C21.5769 18.9247 21.71 18.8684 21.8077 18.7692C21.9054 18.67 21.9597 18.536 21.9587 18.3968C21.9576 18.2575 21.9012 18.1244 21.802 18.0267C21.7028 17.929 21.5688 17.8747 21.4296 17.8758ZM23.5296 17.8758C23.4607 17.8763 23.3925 17.8904 23.329 17.9173C23.2655 17.9442 23.2079 17.9833 23.1596 18.0324C23.1112 18.0816 23.073 18.1397 23.0471 18.2036C23.0212 18.2675 23.0081 18.3359 23.0087 18.4049C23.0092 18.4738 23.0233 18.542 23.0502 18.6055C23.077 18.6689 23.1162 18.7265 23.1653 18.7749C23.2144 18.8233 23.2726 18.8615 23.3365 18.8874C23.4004 18.9133 23.4688 18.9263 23.5377 18.9258C23.6769 18.9247 23.81 18.8684 23.9077 18.7692C24.0054 18.67 24.0597 18.536 24.0587 18.3968C24.0576 18.2575 24.0012 18.1244 23.902 18.0267C23.8028 17.929 23.6688 17.8747 23.5296 17.8758ZM25.6296 17.8758C25.5607 17.8763 25.4925 17.8904 25.429 17.9173C25.3655 17.9442 25.3079 17.9833 25.2596 18.0324C25.2112 18.0816 25.173 18.1397 25.1471 18.2036C25.1212 18.2675 25.1081 18.3359 25.1087 18.4049C25.1092 18.4738 25.1233 18.542 25.1502 18.6055C25.177 18.6689 25.2162 18.7265 25.2653 18.7749C25.3144 18.8233 25.3726 18.8615 25.4365 18.8874C25.5004 18.9133 25.5688 18.9263 25.6377 18.9258C25.7769 18.9247 25.91 18.8684 26.0077 18.7692C26.1054 18.67 26.1597 18.536 26.1587 18.3968C26.1576 18.2575 26.1012 18.1244 26.002 18.0267C25.9028 17.929 25.7688 17.8747 25.6296 17.8758ZM27.7296 17.8758C27.6607 17.8763 27.5925 17.8904 27.529 17.9173C27.4655 17.9442 27.4079 17.9833 27.3596 18.0324C27.3112 18.0816 27.273 18.1397 27.2471 18.2036C27.2212 18.2675 27.2081 18.3359 27.2087 18.4049C27.2092 18.4738 27.2233 18.542 27.2502 18.6055C27.277 18.6689 27.3162 18.7265 27.3653 18.7749C27.4144 18.8233 27.4726 18.8615 27.5365 18.8874C27.6004 18.9133 27.6688 18.9263 27.7377 18.9258C27.8769 18.9247 28.01 18.8684 28.1077 18.7692C28.2054 18.67 28.2597 18.536 28.2587 18.3968C28.2576 18.2575 28.2012 18.1244 28.102 18.0267C28.0028 17.929 27.8688 17.8747 27.7296 17.8758ZM12.0891 18.1389C12.924 18.1389 13.5786 18.7935 13.5786 19.6284C13.5786 20.4633 12.924 21.1173 12.0891 21.1173C11.2542 21.1173 10.6002 20.4633 10.6002 19.6284C10.6002 18.7935 11.2542 18.1389 12.0891 18.1389ZM22.4796 18.9258C22.4107 18.9263 22.3425 18.9404 22.279 18.9673C22.2155 18.9942 22.1579 19.0333 22.1096 19.0824C22.0612 19.1316 22.023 19.1897 21.9971 19.2536C21.9712 19.3175 21.9581 19.3859 21.9587 19.4549C21.9592 19.5238 21.9733 19.592 22.0002 19.6554C22.027 19.7189 22.0662 19.7765 22.1153 19.8249C22.1644 19.8733 22.2226 19.9115 22.2865 19.9374C22.3504 19.9633 22.4188 19.9763 22.4877 19.9758C22.6269 19.9747 22.76 19.9184 22.8577 19.8192C22.9554 19.72 23.0097 19.586 23.0087 19.4468C23.0076 19.3075 22.9512 19.1744 22.852 19.0767C22.7528 18.979 22.6188 18.9247 22.4796 18.9258ZM24.5796 18.9258C24.5107 18.9263 24.4425 18.9404 24.379 18.9673C24.3155 18.9942 24.2579 19.0333 24.2096 19.0824C24.1612 19.1316 24.123 19.1897 24.0971 19.2536C24.0712 19.3175 24.0581 19.3859 24.0587 19.4549C24.0592 19.5238 24.0733 19.592 24.1002 19.6554C24.127 19.7189 24.1662 19.7765 24.2153 19.8249C24.2644 19.8733 24.3226 19.9115 24.3865 19.9374C24.4504 19.9633 24.5188 19.9763 24.5877 19.9758C24.7269 19.9747 24.86 19.9184 24.9577 19.8192C25.0554 19.72 25.1097 19.586 25.1087 19.4468C25.1076 19.3075 25.0512 19.1744 24.952 19.0767C24.8528 18.979 24.7188 18.9247 24.5796 18.9258ZM26.6796 18.9258C26.6107 18.9263 26.5425 18.9404 26.479 18.9673C26.4155 18.9942 26.3579 19.0333 26.3096 19.0824C26.2612 19.1316 26.223 19.1897 26.1971 19.2536C26.1712 19.3175 26.1581 19.3859 26.1587 19.4549C26.1592 19.5238 26.1733 19.592 26.2002 19.6554C26.227 19.7189 26.2662 19.7765 26.3153 19.8249C26.3644 19.8733 26.4226 19.9115 26.4865 19.9374C26.5504 19.9633 26.6188 19.9763 26.6877 19.9758C26.8269 19.9747 26.96 19.9184 27.0577 19.8192C27.1554 19.72 27.2097 19.586 27.2087 19.4468C27.2076 19.3075 27.1512 19.1744 27.052 19.0767C26.9528 18.979 26.8188 18.9247 26.6796 18.9258ZM20.4714 18.9327C20.5386 19.0995 20.6688 19.2312 20.9046 19.3869C20.8909 19.2746 20.8414 19.1698 20.7634 19.0879C20.6853 19.0061 20.5829 18.9516 20.4714 18.9327ZM23.5296 19.9758C23.4607 19.9763 23.3925 19.9904 23.329 20.0173C23.2655 20.0442 23.2079 20.0833 23.1596 20.1324C23.1112 20.1816 23.073 20.2397 23.0471 20.3036C23.0212 20.3675 23.0081 20.4359 23.0087 20.5049C23.0092 20.5738 23.0233 20.642 23.0502 20.7055C23.077 20.7689 23.1162 20.8265 23.1653 20.8749C23.2144 20.9233 23.2726 20.9615 23.3365 20.9874C23.4004 21.0133 23.4688 21.0263 23.5377 21.0258C23.6769 21.0247 23.81 20.9684 23.9077 20.8692C24.0054 20.77 24.0597 20.636 24.0587 20.4968C24.0576 20.3575 24.0012 20.2244 23.902 20.1267C23.8028 20.029 23.6688 19.9747 23.5296 19.9758ZM25.6296 19.9758C25.5607 19.9763 25.4925 19.9904 25.429 20.0173C25.3655 20.0442 25.3079 20.0833 25.2596 20.1324C25.2112 20.1816 25.173 20.2397 25.1471 20.3036C25.1212 20.3675 25.1081 20.4359 25.1087 20.5049C25.1092 20.5738 25.1233 20.642 25.1502 20.7055C25.177 20.7689 25.2162 20.8265 25.2653 20.8749C25.3144 20.9233 25.3726 20.9615 25.4365 20.9874C25.5004 21.0133 25.5688 21.0263 25.6377 21.0258C25.7769 21.0247 25.91 20.9684 26.0077 20.8692C26.1054 20.77 26.1597 20.636 26.1587 20.4968C26.1576 20.3575 26.1012 20.2244 26.002 20.1267C25.9028 20.029 25.7688 19.9747 25.6296 19.9758ZM27.7296 19.9758C27.6607 19.9763 27.5925 19.9904 27.529 20.0173C27.4655 20.0442 27.4079 20.0833 27.3596 20.1324C27.3112 20.1816 27.273 20.2397 27.2471 20.3036C27.2212 20.3675 27.2081 20.4359 27.2087 20.5049C27.2092 20.5738 27.2233 20.642 27.2502 20.7055C27.277 20.7689 27.3162 20.8265 27.3653 20.8749C27.4144 20.9233 27.4726 20.9615 27.5365 20.9874C27.6004 21.0133 27.6688 21.0263 27.7377 21.0258C27.8769 21.0247 28.01 20.9684 28.1077 20.8692C28.2054 20.77 28.2597 20.636 28.2587 20.4968C28.2576 20.3575 28.2012 20.2244 28.102 20.1267C28.0028 20.029 27.8688 19.9747 27.7296 19.9758ZM19.743 20.5077C18.7746 20.5077 17.9799 21.3027 17.9799 22.2708C17.9799 23.2392 18.7749 24.0333 19.743 24.0333C20.7111 24.0333 21.5055 23.2392 21.5055 22.2708C21.5055 21.3027 20.7111 20.5077 19.743 20.5077ZM24.5832 21.0258C24.4806 21.0258 24.3802 21.0559 24.2945 21.1123C24.2088 21.1687 24.1415 21.249 24.101 21.3432C24.0604 21.4375 24.0483 21.5416 24.0663 21.6426C24.0842 21.7436 24.1314 21.8372 24.2019 21.9117L24.9705 21.9054C25.0393 21.8303 25.0848 21.7368 25.1013 21.6363C25.1179 21.5358 25.1049 21.4326 25.0639 21.3394C25.0229 21.2461 24.9556 21.1668 24.8703 21.1112C24.785 21.0555 24.6851 21.0258 24.5832 21.0258ZM26.6832 21.0258C26.5827 21.0259 26.4843 21.0548 26.3997 21.1091C26.3152 21.1635 26.248 21.2409 26.2062 21.3323C26.1643 21.4237 26.1496 21.5252 26.1638 21.6247C26.1779 21.7242 26.2204 21.8176 26.286 21.8937L27.0864 21.8865C27.1502 21.8099 27.1909 21.7166 27.2037 21.6177C27.2165 21.5187 27.2008 21.4182 27.1585 21.3279C27.1161 21.2375 27.049 21.1611 26.9648 21.1075C26.8806 21.054 26.783 21.0258 26.6832 21.0258ZM19.743 21.4077C19.8566 21.4069 19.9691 21.4286 20.0742 21.4717C20.1793 21.5148 20.2747 21.5783 20.355 21.6587C20.4352 21.739 20.4987 21.8345 20.5417 21.9396C20.5847 22.0447 20.6064 22.1573 20.6055 22.2708C20.6064 22.3843 20.5847 22.4969 20.5417 22.6019C20.4987 22.707 20.4352 22.8025 20.3549 22.8827C20.2747 22.963 20.1792 23.0265 20.0742 23.0695C19.9691 23.1125 19.8565 23.1342 19.743 23.1333C19.6295 23.1342 19.5169 23.1125 19.4118 23.0695C19.3067 23.0265 19.2112 22.963 19.1309 22.8828C19.0505 22.8025 18.987 22.7071 18.9439 22.602C18.9008 22.4969 18.8791 22.3843 18.8799 22.2708C18.879 22.1572 18.9007 22.0446 18.9438 21.9395C18.9869 21.8344 19.0504 21.7389 19.1307 21.6585C19.2111 21.5782 19.3066 21.5147 19.4117 21.4716C19.5168 21.4285 19.6294 21.4068 19.743 21.4077ZM14.0691 22.6137C14.7195 23.1933 15.3213 24.0258 15.9045 24.9861H10.695C10.9647 24.3924 11.2236 23.7885 11.4573 23.1573C11.6631 23.1945 11.8734 23.2173 12.0891 23.2173C12.819 23.2173 13.5 22.9938 14.0691 22.6137Z" fill="#344054"/>
</g>
</svg>
