<svg width="28" height="28" viewBox="0 0 28 28" fill="none" xmlns="http://www.w3.org/2000/svg">
<g id="majesticons:map-marker-path-line">
<g id="Group">
<path id="Vector" d="M5.83333 10.5C6.45217 10.5 7.04566 10.2541 7.48325 9.81656C7.92083 9.37898 8.16667 8.78548 8.16667 8.16665C8.16667 7.54781 7.92083 6.95432 7.48325 6.51673C7.04566 6.07915 6.45217 5.83331 5.83333 5.83331C5.21449 5.83331 4.621 6.07915 4.18342 6.51673C3.74583 6.95432 3.5 7.54781 3.5 8.16665C3.5 8.78548 3.74583 9.37898 4.18342 9.81656C4.621 10.2541 5.21449 10.5 5.83333 10.5ZM5.83333 10.5V11.6666M5.83333 19.8333V18.6666M5.83333 19.8333C6.45217 19.8333 7.04566 20.0791 7.48325 20.5167C7.92083 20.9543 8.16667 21.5478 8.16667 22.1666M5.83333 19.8333C5.21449 19.8333 4.621 20.0791 4.18342 20.5167C3.74583 20.9543 3.5 21.5478 3.5 22.1666C3.5 22.7855 3.74583 23.379 4.18342 23.8166C4.621 24.2541 5.21449 24.5 5.83333 24.5C6.45217 24.5 7.04566 24.2541 7.48325 23.8166C7.92083 23.379 8.16667 22.7855 8.16667 22.1666M8.16667 22.1666H9.33333M19.8333 19.8333C20.2948 19.8333 20.7459 19.9702 21.1297 20.2266C21.5134 20.4829 21.8124 20.8474 21.9891 21.2737C22.1657 21.7001 22.2119 22.1692 22.1218 22.6219C22.0318 23.0745 21.8096 23.4902 21.4832 23.8166C21.1569 24.1429 20.7412 24.3651 20.2885 24.4551C19.8359 24.5452 19.3668 24.499 18.9404 24.3224C18.514 24.1458 18.1496 23.8467 17.8932 23.463C17.6368 23.0793 17.5 22.6281 17.5 22.1666M19.8333 19.8333C19.2145 19.8333 18.621 20.0791 18.1834 20.5167C17.7458 20.9543 17.5 21.5478 17.5 22.1666M19.8333 19.8333V18.6666M17.5 22.1666H16.3333" stroke="#344054" stroke-width="2" stroke-linecap="round" stroke-linejoin="round"/>
<path id="Vector_2" d="M5.83341 16.3333C6.47775 16.3333 7.00008 15.811 7.00008 15.1667C7.00008 14.5223 6.47775 14 5.83341 14C5.18908 14 4.66675 14.5223 4.66675 15.1667C4.66675 15.811 5.18908 16.3333 5.83341 16.3333Z" fill="#344054"/>
<path id="Vector_3" d="M12.8334 23.3333C13.4777 23.3333 14.0001 22.811 14.0001 22.1667C14.0001 21.5223 13.4777 21 12.8334 21C12.1891 21 11.6667 21.5223 11.6667 22.1667C11.6667 22.811 12.1891 23.3333 12.8334 23.3333Z" fill="#344054"/>
<path id="Vector_4" d="M24.5001 8.16667C24.5001 11.2128 19.8334 15.1667 19.8334 15.1667C19.8334 15.1667 15.1667 11.2128 15.1667 8.16667C15.1667 5.1205 17.2551 3.5 19.8334 3.5C22.4117 3.5 24.5001 5.1205 24.5001 8.16667Z" stroke="#344054" stroke-width="2" stroke-linecap="round" stroke-linejoin="round"/>
<path id="Vector_5" d="M19.8334 9.33333C20.4777 9.33333 21.0001 8.811 21.0001 8.16667C21.0001 7.52233 20.4777 7 19.8334 7C19.1891 7 18.6667 7.52233 18.6667 8.16667C18.6667 8.811 19.1891 9.33333 19.8334 9.33333Z" fill="#344054"/>
</g>
</g>
</svg>
