<svg width="28" height="28" viewBox="0 0 28 28" fill="none" xmlns="http://www.w3.org/2000/svg">
<g id="gis:statistic-map" clip-path="url(#clip0_378_2044)">
<path id="Vector" d="M0.7 3.5C0.514348 3.5 0.336301 3.57375 0.205025 3.70503C0.0737498 3.8363 0 4.01435 0 4.2L0 23.8C0 23.9857 0.0737498 24.1637 0.205025 24.295C0.336301 24.4263 0.514348 24.5 0.7 24.5H27.3C27.4857 24.5 27.6637 24.4263 27.795 24.295C27.9263 24.1637 28 23.9857 28 23.8V4.2C28 4.01435 27.9263 3.8363 27.795 3.70503C27.6637 3.57375 27.4857 3.5 27.3 3.5H0.7ZM1.4 4.9H14.0896L14.0804 6.49852L9.40996 14.2285L1.4 17.9458V4.9ZM14.9302 4.9H26.6V10.2889L19.325 12.64L14.9209 6.48284L14.9302 4.9ZM14.5295 7.37996L18.6693 13.167L17.0279 16.2767L14.2467 16.6676L10.2855 14.404L14.5295 7.37996ZM26.6 11.1714V23.1H24.575L17.8184 16.5796L19.4536 13.4809L26.6 11.1714ZM9.68352 15.0276L13.7642 17.3594L14.2708 23.1H1.4V18.8714L9.68352 15.0276ZM17.1556 17.1069L23.3652 23.1H15.1144L14.616 17.4639L17.1556 17.1069Z" fill="#344054"/>
<path id="Vector_2" d="M17.1825 19.2444C16.8112 19.2444 16.4551 19.3919 16.1926 19.6545C15.93 19.917 15.7825 20.2731 15.7825 20.6444C15.7825 21.0157 15.93 21.3718 16.1926 21.6344C16.4551 21.8969 16.8112 22.0444 17.1825 22.0444C17.5538 22.0444 17.9099 21.8969 18.1725 21.6344C18.435 21.3718 18.5825 21.0157 18.5825 20.6444C18.5825 20.2731 18.435 19.917 18.1725 19.6545C17.9099 19.3919 17.5538 19.2444 17.1825 19.2444ZM9.30613 16.3408C8.48926 16.3408 7.70585 16.6624 7.12824 17.2347C6.55063 17.8071 6.22613 18.5834 6.22613 19.3928C6.22628 20.2022 6.55084 20.9783 7.12844 21.5505C7.70603 22.1228 8.48936 22.4442 9.30613 22.4442C10.1229 22.4442 10.9062 22.1228 11.4838 21.5505C12.0614 20.9783 12.386 20.2022 12.3861 19.3928C12.3861 18.5834 12.0616 17.8071 11.484 17.2347C10.9064 16.6624 10.123 16.3408 9.30613 16.3408ZM23.2935 13.4658C22.5509 13.4658 21.8387 13.7581 21.3136 14.2783C20.7885 14.7986 20.4935 15.5042 20.4935 16.24C20.4935 16.6043 20.5659 16.9651 20.7066 17.3017C20.8473 17.6384 21.0535 17.9442 21.3135 18.2019C21.5735 18.4595 21.8822 18.6639 22.2219 18.8033C22.5617 18.9428 22.9258 19.0145 23.2935 19.0145C23.6613 19.0145 24.0254 18.9428 24.3651 18.8033C24.7048 18.6639 25.0135 18.4595 25.2735 18.2019C25.5335 17.9442 25.7398 17.6384 25.8805 17.3017C26.0212 16.9651 26.0936 16.6043 26.0935 16.24C26.0935 15.5042 25.7985 14.7986 25.2734 14.2783C24.7483 13.7581 24.0361 13.4658 23.2935 13.4658ZM21.1442 5.82709C20.5878 5.82782 20.0544 6.04732 19.6612 6.43739C19.268 6.82745 19.0471 7.35619 19.047 7.90749C19.047 8.45932 19.2683 8.98855 19.6621 9.37875C20.056 9.76895 20.5901 9.98817 21.147 9.98817C21.704 9.98817 22.2381 9.76895 22.632 9.37875C23.0258 8.98855 23.247 8.45932 23.247 7.90749C23.247 7.35571 23.0257 6.82655 22.6319 6.43641C22.2381 6.04626 21.704 5.82709 21.147 5.82709C21.1461 5.82709 21.1452 5.82709 21.1442 5.82709ZM14.9162 11.3859C14.5449 11.3859 14.1888 11.5334 13.9263 11.796C13.6637 12.0585 13.5162 12.4146 13.5162 12.7859C13.5162 13.1572 13.6637 13.5133 13.9263 13.7759C14.1888 14.0384 14.5449 14.1859 14.9162 14.1859C15.2875 14.1859 15.6436 14.0384 15.9062 13.7759C16.1687 13.5133 16.3162 13.1572 16.3162 12.7859C16.3162 12.4146 16.1687 12.0585 15.9062 11.796C15.6436 11.5334 15.2875 11.3859 14.9162 11.3859ZM5.92429 5.95197C5.42787 5.95197 4.93631 6.04885 4.47768 6.23709C4.01905 6.42532 3.60233 6.70122 3.25132 7.04903C2.90031 7.39684 2.62189 7.80975 2.43194 8.26419C2.242 8.71862 2.14425 9.20567 2.14429 9.69753C2.14425 10.1894 2.242 10.6764 2.43194 11.1309C2.62189 11.5853 2.90031 11.9982 3.25132 12.346C3.60233 12.6938 4.01905 12.9697 4.47768 13.158C4.93631 13.3462 5.42787 13.4431 5.92429 13.4431C6.42071 13.4431 6.91227 13.3462 7.3709 13.158C7.82952 12.9697 8.24624 12.6938 8.59725 12.346C8.94826 11.9982 9.22669 11.5853 9.41663 11.1309C9.60658 10.6764 9.70432 10.1894 9.70429 9.69753C9.70432 9.20567 9.60658 8.71862 9.41663 8.26419C9.22669 7.80975 8.94826 7.39684 8.59725 7.04903C8.24624 6.70122 7.82952 6.42532 7.3709 6.23709C6.91227 6.04885 6.42071 5.95197 5.92429 5.95197Z" fill="#344054"/>
</g>
<defs>
<clipPath id="clip0_378_2044">
<rect width="28" height="28" fill="white"/>
</clipPath>
</defs>
</svg>
