<svg width="24" height="24" viewBox="0 0 24 24" fill="none" xmlns="http://www.w3.org/2000/svg">
<g id="Frame">
<path id="Vector" d="M19.25 5.75C19.25 5.48478 19.1446 5.23043 18.9571 5.04289C18.7696 4.85536 18.5152 4.75 18.25 4.75H14C13.4696 4.75 12.9609 4.96071 12.5858 5.33579C12.2107 5.71086 12 6.21957 12 6.75V19.25L12.828 18.422C13.1995 18.0504 13.6405 17.7557 14.1259 17.5546C14.6113 17.3535 15.1316 17.25 15.657 17.25H18.25C18.5152 17.25 18.7696 17.1446 18.9571 16.9571C19.1446 16.7696 19.25 16.5152 19.25 16.25V5.75Z" stroke="#575B5C" stroke-width="1.5" stroke-linecap="round" stroke-linejoin="round"/>
<path id="Vector_2" d="M4.75 5.75C4.75 5.48478 4.85536 5.23043 5.04289 5.04289C5.23043 4.85536 5.48478 4.75 5.75 4.75H10C10.5304 4.75 11.0391 4.96071 11.4142 5.33579C11.7893 5.71086 12 6.21957 12 6.75V19.25L11.172 18.422C10.8005 18.0504 10.3595 17.7557 9.87409 17.5546C9.38868 17.3535 8.86841 17.25 8.343 17.25H5.75C5.48478 17.25 5.23043 17.1446 5.04289 16.9571C4.85536 16.7696 4.75 16.5152 4.75 16.25V5.75Z" stroke="#575B5C" stroke-width="1.5" stroke-linecap="round" stroke-linejoin="round"/>
</g>
</svg>
