<svg width="26" height="26" viewBox="0 0 26 26" fill="none" xmlns="http://www.w3.org/2000/svg">
<path d="M19.4998 16.2501H6.49984L2.1665 20.5834V3.25008C2.1665 2.96276 2.28064 2.68721 2.4838 2.48405C2.68697 2.28088 2.96252 2.16675 3.24984 2.16675H19.4998C19.7872 2.16675 20.0627 2.28088 20.2659 2.48405C20.469 2.68721 20.5832 2.96276 20.5832 3.25008V15.1667C20.5832 15.4541 20.469 15.7296 20.2659 15.9328C20.0627 16.1359 19.7872 16.2501 19.4998 16.2501ZM24.9165 9.75008V24.9167L20.5832 20.5834H8.6665C8.37919 20.5834 8.10364 20.4693 7.90047 20.2661C7.69731 20.063 7.58317 19.7874 7.58317 19.5001V18.4167H22.7498V8.66675H23.8332C24.1205 8.66675 24.396 8.78089 24.5992 8.98405C24.8024 9.18721 24.9165 9.46276 24.9165 9.75008ZM8.87234 4.33341C7.92984 4.33341 7.1715 4.55008 6.5865 4.97258C6.02317 5.41675 5.7415 6.03425 5.75234 6.89008L5.76317 6.92258H7.854C7.86484 6.59758 7.96234 6.34841 8.15734 6.17508C8.35794 6.00873 8.61179 5.92027 8.87234 5.92591C9.20817 5.92591 9.48984 6.03425 9.68484 6.22925C9.87984 6.43508 9.9665 6.71675 9.9665 7.04175C9.9665 7.38841 9.89067 7.68091 9.71734 7.93008C9.56567 8.17925 9.33817 8.39591 9.0565 8.56925C8.504 8.93758 8.12484 9.26258 7.919 9.55508C7.70234 9.83675 7.58317 10.2917 7.58317 10.8334H9.74984C9.74984 10.4976 9.79317 10.2267 9.89067 10.0317C9.98817 9.83675 10.1723 9.64175 10.4432 9.46841C10.9307 9.20841 11.3315 8.89425 11.6457 8.46092C11.9598 8.02758 12.1223 7.58342 12.1223 7.04175C12.1223 6.21841 11.8298 5.55758 11.2448 5.07008C10.6707 4.58258 9.87984 4.33341 8.87234 4.33341ZM7.58317 11.9167V14.0834H9.74984V11.9167H7.58317ZM14.0832 14.0834H16.2498V11.9167H14.0832V14.0834ZM14.0832 4.33341V10.8334H16.2498V4.33341H14.0832Z" fill="#101010"/>
</svg>
